<?xml version="1.0" encoding="UTF-8" standalone="no"?>
<!DOCTYPE svg PUBLIC "-//W3C//DTD SVG 1.1//EN" "http://www.w3.org/Graphics/SVG/1.1/DTD/svg11.dtd">
<svg xmlns="http://www.w3.org/2000/svg" version="1.1" xlink="http://www.w3.org/1999/xlink" xmlns:svgjs="http://svgjs.com/svgjs" width="100%" height="100%" preserveAspectRatio="xMidYMid meet" viewBox="0 0 300.0008850097656 91.43267822265625" overflow="visible">
	<defs id="SvgjsDefs64582"></defs>
	<g id="SvgjsG64583" transform="scale(0.6437768240343348)" opacity="1">
		<g id="SvgjsG64584" class="xPmLBdE3a" transform="translate(-17.753177587146332, -17.753177587146332) scale(1.7753177587146332)" light-content="false" non-strokable="false" fill="#ffffff">
			<path d="M60 20c-16.563 0-30 13.431-30 29.997 0 11.045 8.955 20 20 20s19.997-8.955 20-20c0-7.357-5.967-13.331-13.333-13.331-7.363 0-13.334 5.974-13.334 13.333 0 3.685 2.985 6.667 6.667 6.667s6.667-2.982 6.667-6.667H50c0-3.685 2.985-6.667 6.667-6.667s6.666 2.982 6.666 6.667c0 7.366-5.97 13.333-13.333 13.333S36.667 57.366 36.667 50c0-11.042 8.955-20 20-20 11.048 0 19.996 8.955 20 19.997v-.004V50v-.003C76.663 64.724 64.727 76.663 50 76.663S23.333 64.724 23.333 49.997V50v-.007.004c0-20.248 16.42-36.664 36.667-36.664 2.624 0 5.179.286 7.646.811C62.317 11.517 56.341 10 50 10c-22.09 0-40 17.91-40 40s17.91 40 40 40 40-17.91 40-40c0-1.035-.078-2.051-.156-3.066C88.308 31.807 75.534 20 60 20z"></path>
		</g>
		<g id="SvgjsG64585" class="text" transform="translate(312.8713611978467, 121.75896364383019) scale(1)" light-content="false" fill="#ffffff">
			<path d="M-68.2 -5.29C-81.58 -21.46 -93.56 -37.38 -104.13 -53.04L-71.16 -100.32L-98.07 -100.32L-103.67 -90.21L-128.09 -55.53L-127.31 -100.32L-152.82 -100.32L-151.57 -29.71L-152.82 0L-127.62 0L-128.55 -32.2L-128.24 -49.46C-119.74 -35.05 -109.11 -18.51 -96.36 0.16L-93.4 1.71C-85 0.88 -76.71 -0.52 -68.52 -2.49Z M33.67 -52.26C33.67 -85.24 17.45 -101.72 -15.01 -101.72C-24.34 -101.72 -33.42 -100.27 -42.23 -97.37L-44.25 -76.84L-41.92 -75.44C-32.48 -78.96 -24.29 -80.73 -17.34 -80.73C-10.19 -80.73 -4.72 -79.14 -0.93 -75.98C2.85 -72.82 5.26 -67.66 6.3 -60.5L-7.39 -60.35L-30.87 -60.82L-32.43 -42.31L-31.03 -40.44L-9.1 -40.91L6.61 -40.75C5.68 -33.29 3.37 -27.82 -0.31 -24.34C-3.99 -20.87 -9.36 -19.13 -16.41 -19.13C-20.45 -19.13 -24.55 -19.68 -28.7 -20.76C-32.84 -21.85 -36.58 -23.33 -39.9 -25.2L-41.92 -24.26L-46.27 -3.73C-37.67 -0.21 -28.44 1.56 -18.59 1.56C-1.69 1.56 11.25 -3.06 20.22 -12.29C29.19 -21.52 33.67 -34.84 33.67 -52.26Z M66.34 -29.71L65.09 0L91.38 0L127.15 -62.53L128.71 -62.53L128.71 -29.71L127.46 0L152.66 0L151.73 -32.2L153.13 -100.32L126.22 -100.32L90.6 -37.95L89.05 -37.95L90.76 -100.95L65.09 -99.7Z"></path>
		</g>
	</g>
</svg>